<svg xmlns="http://www.w3.org/2000/svg" width="96" height="96" viewBox="0 0 96 96">
<!-- Functional warning symbol referenced to SKODA Yeti Owner Manual 11.2011, printed p.23. No font or cluster image bundled. -->
<g fill="#f2b84b" transform="translate(8.000000 75.434783) scale(5.565217)">
<path transform="translate(0.000000 0)" d="M 3.015625 -4.9375 C 3.015625 -4.550781 3.0625 -4.179688 3.15625 -3.828125 C 3.257812 -3.484375 3.40625 -3.15625 3.59375 -2.84375 C 3.78125 -2.539062 4 -2.257812 4.25 -2 C 4.5 -1.75 4.78125 -1.53125 5.09375 -1.34375 C 5.40625 -1.164062 5.734375 -1.023438 6.078125 -0.921875 C 6.429688 -0.828125 6.796875 -0.78125 7.171875 -0.78125 C 7.554688 -0.78125 7.925781 -0.828125 8.28125 -0.921875 C 8.632812 -1.023438 8.960938 -1.164062 9.265625 -1.34375 C 9.578125 -1.53125 9.859375 -1.75 10.109375 -2 C 10.367188 -2.257812 10.585938 -2.539062 10.765625 -2.84375 C 10.953125 -3.15625 11.09375 -3.484375 11.1875 -3.828125 C 11.289062 -4.179688 11.34375 -4.550781 11.34375 -4.9375 C 11.34375 -5.507812 11.234375 -6.046875 11.015625 -6.546875 C 10.796875 -7.046875 10.492188 -7.484375 10.109375 -7.859375 C 9.734375 -8.242188 9.289062 -8.546875 8.78125 -8.765625 C 8.28125 -8.984375 7.742188 -9.09375 7.171875 -9.09375 C 6.609375 -9.09375 6.070312 -8.984375 5.5625 -8.765625 C 5.0625 -8.546875 4.625 -8.242188 4.25 -7.859375 C 3.875 -7.484375 3.570312 -7.046875 3.34375 -6.546875 C 3.125 -6.046875 3.015625 -5.507812 3.015625 -4.9375 Z M 2.234375 -4.9375 C 2.234375 -5.625 2.363281 -6.265625 2.625 -6.859375 C 2.882812 -7.460938 3.234375 -7.988281 3.671875 -8.4375 C 4.117188 -8.882812 4.644531 -9.234375 5.25 -9.484375 C 5.851562 -9.742188 6.492188 -9.875 7.171875 -9.875 C 7.628906 -9.875 8.070312 -9.816406 8.5 -9.703125 C 8.925781 -9.585938 9.320312 -9.421875 9.6875 -9.203125 C 10.050781 -8.992188 10.382812 -8.738281 10.6875 -8.4375 C 10.988281 -8.132812 11.242188 -7.800781 11.453125 -7.4375 C 11.671875 -7.070312 11.835938 -6.675781 11.953125 -6.25 C 12.066406 -5.820312 12.125 -5.382812 12.125 -4.9375 C 12.125 -4.476562 12.066406 -4.035156 11.953125 -3.609375 C 11.835938 -3.191406 11.671875 -2.800781 11.453125 -2.4375 C 11.242188 -2.070312 10.988281 -1.738281 10.6875 -1.4375 C 10.382812 -1.132812 10.050781 -0.875 9.6875 -0.65625 C 9.320312 -0.4375 8.925781 -0.269531 8.5 -0.15625 C 8.070312 -0.0390625 7.628906 0.015625 7.171875 0.015625 C 6.722656 0.015625 6.285156 -0.0390625 5.859375 -0.15625 C 5.441406 -0.269531 5.046875 -0.4375 4.671875 -0.65625 C 4.304688 -0.875 3.972656 -1.132812 3.671875 -1.4375 C 3.367188 -1.738281 3.113281 -2.070312 2.90625 -2.4375 C 2.695312 -2.800781 2.53125 -3.191406 2.40625 -3.609375 C 2.289062 -4.035156 2.234375 -4.476562 2.234375 -4.9375 Z M 10.703125 -4.46875 C 10.703125 -4.269531 10.671875 -4.109375 10.609375 -3.984375 C 10.554688 -3.867188 10.476562 -3.78125 10.375 -3.71875 C 10.28125 -3.664062 10.171875 -3.628906 10.046875 -3.609375 C 9.921875 -3.597656 9.800781 -3.59375 9.6875 -3.59375 C 9.5 -3.59375 9.34375 -3.613281 9.21875 -3.65625 C 9.09375 -3.707031 8.992188 -3.773438 8.921875 -3.859375 C 8.859375 -3.941406 8.8125 -4.039062 8.78125 -4.15625 C 8.757812 -4.269531 8.75 -4.398438 8.75 -4.546875 L 9.375 -4.546875 C 9.375 -4.484375 9.378906 -4.421875 9.390625 -4.359375 C 9.410156 -4.296875 9.429688 -4.234375 9.453125 -4.171875 C 9.484375 -4.117188 9.523438 -4.070312 9.578125 -4.03125 C 9.628906 -4 9.691406 -3.984375 9.765625 -3.984375 C 9.890625 -3.984375 9.972656 -4.019531 10.015625 -4.09375 C 10.066406 -4.164062 10.09375 -4.257812 10.09375 -4.375 C 10.09375 -4.46875 10.0625 -4.546875 10 -4.609375 C 9.9375 -4.679688 9.859375 -4.742188 9.765625 -4.796875 C 9.671875 -4.859375 9.566406 -4.921875 9.453125 -4.984375 C 9.347656 -5.046875 9.25 -5.113281 9.15625 -5.1875 C 9.0625 -5.269531 8.984375 -5.363281 8.921875 -5.46875 C 8.859375 -5.582031 8.828125 -5.71875 8.828125 -5.875 C 8.828125 -5.988281 8.84375 -6.097656 8.875 -6.203125 C 8.90625 -6.304688 8.957031 -6.394531 9.03125 -6.46875 C 9.113281 -6.550781 9.21875 -6.613281 9.34375 -6.65625 C 9.476562 -6.707031 9.648438 -6.734375 9.859375 -6.734375 C 10.128906 -6.734375 10.335938 -6.65625 10.484375 -6.5 C 10.628906 -6.351562 10.703125 -6.117188 10.703125 -5.796875 L 10.09375 -5.796875 C 10.09375 -5.910156 10.066406 -6.015625 10.015625 -6.109375 C 9.972656 -6.210938 9.890625 -6.265625 9.765625 -6.265625 C 9.648438 -6.265625 9.566406 -6.234375 9.515625 -6.171875 C 9.472656 -6.109375 9.453125 -6.035156 9.453125 -5.953125 C 9.453125 -5.847656 9.484375 -5.757812 9.546875 -5.6875 C 9.609375 -5.613281 9.6875 -5.546875 9.78125 -5.484375 C 9.875 -5.429688 9.972656 -5.378906 10.078125 -5.328125 C 10.191406 -5.273438 10.296875 -5.207031 10.390625 -5.125 C 10.484375 -5.050781 10.554688 -4.960938 10.609375 -4.859375 C 10.671875 -4.753906 10.703125 -4.625 10.703125 -4.46875 Z M 4.1875 -3.59375 L 3.578125 -3.59375 L 4.421875 -6.65625 L 5.21875 -6.65625 L 6.078125 -3.59375 L 5.375 -3.59375 L 5.21875 -4.3125 L 4.34375 -4.3125 Z M 5.140625 -4.78125 L 4.828125 -6.03125 L 4.515625 -4.78125 Z M 7.03125 -4.9375 L 7.03125 -4.0625 L 7.34375 -4.0625 C 7.382812 -4.0625 7.429688 -4.0625 7.484375 -4.0625 C 7.535156 -4.070312 7.582031 -4.085938 7.625 -4.109375 C 7.675781 -4.140625 7.71875 -4.179688 7.75 -4.234375 C 7.789062 -4.296875 7.8125 -4.375 7.8125 -4.46875 C 7.8125 -4.78125 7.65625 -4.9375 7.34375 -4.9375 Z M 7.03125 -6.1875 L 7.03125 -5.40625 L 7.421875 -5.40625 C 7.492188 -5.40625 7.5625 -5.429688 7.625 -5.484375 C 7.695312 -5.535156 7.734375 -5.640625 7.734375 -5.796875 C 7.734375 -5.910156 7.695312 -6.003906 7.625 -6.078125 C 7.550781 -6.148438 7.457031 -6.1875 7.34375 -6.1875 Z M 7.5 -3.59375 L 6.40625 -3.59375 L 6.40625 -6.65625 L 7.5 -6.65625 C 7.613281 -6.65625 7.722656 -6.640625 7.828125 -6.609375 C 7.929688 -6.585938 8.019531 -6.546875 8.09375 -6.484375 C 8.175781 -6.429688 8.238281 -6.359375 8.28125 -6.265625 C 8.332031 -6.171875 8.359375 -6.039062 8.359375 -5.875 C 8.359375 -5.476562 8.203125 -5.242188 7.890625 -5.171875 C 8.085938 -5.128906 8.226562 -5.046875 8.3125 -4.921875 C 8.394531 -4.796875 8.4375 -4.613281 8.4375 -4.375 C 8.4375 -4.195312 8.398438 -4.054688 8.328125 -3.953125 C 8.253906 -3.847656 8.164062 -3.769531 8.0625 -3.71875 C 7.957031 -3.664062 7.851562 -3.628906 7.75 -3.609375 C 7.644531 -3.597656 7.5625 -3.59375 7.5 -3.59375 Z M 12.046875 -9.8125 C 12.335938 -9.488281 12.601562 -9.140625 12.84375 -8.765625 C 13.082031 -8.398438 13.289062 -8.007812 13.46875 -7.59375 C 13.644531 -7.1875 13.78125 -6.757812 13.875 -6.3125 C 13.96875 -5.863281 14.015625 -5.40625 14.015625 -4.9375 C 14.015625 -4.46875 13.96875 -4.003906 13.875 -3.546875 C 13.78125 -3.097656 13.644531 -2.664062 13.46875 -2.25 C 13.289062 -1.84375 13.082031 -1.457031 12.84375 -1.09375 C 12.601562 -0.726562 12.335938 -0.390625 12.046875 -0.078125 L 11.109375 -1 C 11.617188 -1.519531 12.019531 -2.109375 12.3125 -2.765625 C 12.601562 -3.421875 12.75 -4.144531 12.75 -4.9375 C 12.75 -5.726562 12.601562 -6.445312 12.3125 -7.09375 C 12.019531 -7.75 11.617188 -8.335938 11.109375 -8.859375 Z M 0.359375 -4.9375 C 0.359375 -5.882812 0.523438 -6.773438 0.859375 -7.609375 C 1.203125 -8.441406 1.6875 -9.175781 2.3125 -9.8125 L 3.25 -8.859375 C 3 -8.628906 2.769531 -8.367188 2.5625 -8.078125 C 2.363281 -7.785156 2.191406 -7.46875 2.046875 -7.125 C 1.910156 -6.789062 1.800781 -6.4375 1.71875 -6.0625 C 1.644531 -5.695312 1.609375 -5.320312 1.609375 -4.9375 C 1.609375 -4.144531 1.753906 -3.421875 2.046875 -2.765625 C 2.335938 -2.109375 2.738281 -1.519531 3.25 -1 L 2.390625 -0.078125 C 1.722656 -0.703125 1.21875 -1.429688 0.875 -2.265625 C 0.53125 -3.097656 0.359375 -3.988281 0.359375 -4.9375 Z M 0.359375 -4.9375 "/>
</g>
</svg>
