<svg xmlns="http://www.w3.org/2000/svg" width="96" height="96" viewBox="0 0 96 96">
<!-- Functional warning symbol referenced to SKODA Yeti Owner Manual 11.2011, printed p.23. No font or cluster image bundled. -->
<g fill="#f6a623" transform="translate(18.700495 77.910891) scale(6.019802)">
<path transform="translate(0.000000 0)" d="M 1.6875 -3.40625 C 1.738281 -3.363281 1.820312 -3.300781 1.9375 -3.21875 C 2.0625 -3.144531 2.1875 -3.078125 2.3125 -3.015625 C 2.457031 -2.921875 2.613281 -2.832031 2.78125 -2.75 L 1.578125 -2.75 C 1.566406 -2.75 1.53125 -2.765625 1.46875 -2.796875 C 1.40625 -2.835938 1.320312 -2.882812 1.21875 -2.9375 C 1.125 -2.988281 1.023438 -3.046875 0.921875 -3.109375 C 0.816406 -3.179688 0.710938 -3.253906 0.609375 -3.328125 C 0.515625 -3.410156 0.4375 -3.488281 0.375 -3.5625 C 0.320312 -3.632812 0.296875 -3.707031 0.296875 -3.78125 C 0.296875 -3.84375 0.320312 -3.90625 0.375 -3.96875 C 0.425781 -4.03125 0.488281 -4.085938 0.5625 -4.140625 C 0.644531 -4.191406 0.738281 -4.238281 0.84375 -4.28125 C 0.945312 -4.332031 1.050781 -4.378906 1.15625 -4.421875 C 1.25 -4.441406 1.363281 -4.46875 1.5 -4.5 C 1.632812 -4.539062 1.773438 -4.582031 1.921875 -4.625 C 2.078125 -4.664062 2.226562 -4.707031 2.375 -4.75 C 2.53125 -4.800781 2.671875 -4.851562 2.796875 -4.90625 C 2.921875 -4.96875 3.019531 -5.023438 3.09375 -5.078125 C 3.175781 -5.140625 3.21875 -5.203125 3.21875 -5.265625 C 3.21875 -5.335938 3.179688 -5.410156 3.109375 -5.484375 C 3.046875 -5.554688 2.960938 -5.628906 2.859375 -5.703125 C 2.765625 -5.773438 2.671875 -5.847656 2.578125 -5.921875 C 2.484375 -5.992188 2.410156 -6.0625 2.359375 -6.125 L 3.296875 -6.125 C 3.296875 -6.125 3.320312 -6.109375 3.375 -6.078125 C 3.4375 -6.054688 3.507812 -6.019531 3.59375 -5.96875 C 3.675781 -5.914062 3.765625 -5.851562 3.859375 -5.78125 C 3.953125 -5.71875 4.039062 -5.648438 4.125 -5.578125 C 4.207031 -5.515625 4.273438 -5.441406 4.328125 -5.359375 C 4.378906 -5.285156 4.40625 -5.21875 4.40625 -5.15625 C 4.40625 -5.070312 4.375 -5 4.3125 -4.9375 C 4.25 -4.875 4.164062 -4.816406 4.0625 -4.765625 C 3.957031 -4.710938 3.835938 -4.660156 3.703125 -4.609375 C 3.566406 -4.566406 3.429688 -4.519531 3.296875 -4.46875 C 3.117188 -4.394531 2.925781 -4.328125 2.71875 -4.265625 C 2.507812 -4.203125 2.273438 -4.128906 2.015625 -4.046875 C 1.671875 -3.929688 1.5 -3.804688 1.5 -3.671875 C 1.5 -3.585938 1.5625 -3.5 1.6875 -3.40625 Z M 6.78125 -3.328125 C 6.832031 -3.273438 6.914062 -3.21875 7.03125 -3.15625 C 7.144531 -3.09375 7.257812 -3.03125 7.375 -2.96875 C 7.507812 -2.894531 7.648438 -2.820312 7.796875 -2.75 L 6.515625 -2.75 C 6.503906 -2.757812 6.460938 -2.78125 6.390625 -2.8125 C 6.316406 -2.84375 6.234375 -2.882812 6.140625 -2.9375 C 6.054688 -2.988281 5.960938 -3.046875 5.859375 -3.109375 C 5.765625 -3.179688 5.671875 -3.253906 5.578125 -3.328125 C 5.492188 -3.398438 5.425781 -3.472656 5.375 -3.546875 C 5.320312 -3.617188 5.296875 -3.691406 5.296875 -3.765625 C 5.296875 -3.828125 5.3125 -3.882812 5.34375 -3.9375 C 5.382812 -4 5.429688 -4.050781 5.484375 -4.09375 C 5.546875 -4.132812 5.613281 -4.171875 5.6875 -4.203125 C 5.757812 -4.242188 5.832031 -4.273438 5.90625 -4.296875 C 6.007812 -4.328125 6.148438 -4.367188 6.328125 -4.421875 C 6.515625 -4.484375 6.710938 -4.546875 6.921875 -4.609375 C 7.128906 -4.679688 7.332031 -4.753906 7.53125 -4.828125 C 7.726562 -4.898438 7.894531 -4.960938 8.03125 -5.015625 C 8.175781 -5.066406 8.25 -5.132812 8.25 -5.21875 C 8.25 -5.289062 8.21875 -5.363281 8.15625 -5.4375 C 8.09375 -5.507812 8.015625 -5.582031 7.921875 -5.65625 C 7.828125 -5.738281 7.734375 -5.816406 7.640625 -5.890625 C 7.546875 -5.960938 7.46875 -6.035156 7.40625 -6.109375 L 8.296875 -6.109375 C 8.296875 -6.109375 8.320312 -6.09375 8.375 -6.0625 C 8.425781 -6.03125 8.492188 -5.988281 8.578125 -5.9375 C 8.660156 -5.894531 8.75 -5.84375 8.84375 -5.78125 C 8.945312 -5.71875 9.039062 -5.648438 9.125 -5.578125 C 9.21875 -5.515625 9.289062 -5.453125 9.34375 -5.390625 C 9.40625 -5.328125 9.4375 -5.265625 9.4375 -5.203125 C 9.4375 -5.160156 9.421875 -5.109375 9.390625 -5.046875 C 9.367188 -4.984375 9.328125 -4.921875 9.265625 -4.859375 C 9.203125 -4.804688 9.117188 -4.75 9.015625 -4.6875 C 8.910156 -4.625 8.78125 -4.570312 8.625 -4.53125 C 8.601562 -4.519531 8.550781 -4.5 8.46875 -4.46875 C 8.382812 -4.445312 8.285156 -4.414062 8.171875 -4.375 C 8.054688 -4.34375 7.929688 -4.304688 7.796875 -4.265625 C 7.671875 -4.222656 7.546875 -4.179688 7.421875 -4.140625 C 7.304688 -4.109375 7.203125 -4.078125 7.109375 -4.046875 C 7.023438 -4.015625 6.972656 -3.992188 6.953125 -3.984375 C 6.671875 -3.898438 6.53125 -3.796875 6.53125 -3.671875 C 6.53125 -3.566406 6.613281 -3.453125 6.78125 -3.328125 Z M 3.3125 -7.453125 L 3.3125 -6.828125 C 3.3125 -6.710938 3.25 -6.65625 3.125 -6.65625 L 2.359375 -6.65625 C 2.242188 -6.65625 2.1875 -6.710938 2.1875 -6.828125 L 2.1875 -7.859375 C 2.15625 -8.003906 2.132812 -8.132812 2.125 -8.25 C 2.113281 -8.375 2.109375 -8.484375 2.109375 -8.578125 C 2.109375 -8.804688 2.128906 -8.976562 2.171875 -9.09375 C 2.222656 -9.21875 2.253906 -9.304688 2.265625 -9.359375 L 1.859375 -9.359375 C 1.804688 -9.359375 1.765625 -9.378906 1.734375 -9.421875 C 1.703125 -9.472656 1.6875 -9.507812 1.6875 -9.53125 L 1.796875 -9.953125 C 1.796875 -9.984375 1.828125 -10.007812 1.890625 -10.03125 C 1.953125 -10.050781 2.003906 -10.0625 2.046875 -10.0625 L 2.6875 -10.0625 C 2.695312 -10.09375 2.722656 -10.132812 2.765625 -10.1875 C 2.804688 -10.238281 2.847656 -10.289062 2.890625 -10.34375 C 2.941406 -10.40625 2.988281 -10.460938 3.03125 -10.515625 C 3.070312 -10.578125 3.109375 -10.632812 3.140625 -10.6875 C 3.210938 -10.769531 3.273438 -10.84375 3.328125 -10.90625 C 3.378906 -10.96875 3.429688 -11.019531 3.484375 -11.0625 C 3.535156 -11.113281 3.597656 -11.15625 3.671875 -11.1875 C 3.753906 -11.21875 3.859375 -11.234375 3.984375 -11.234375 C 4.273438 -11.253906 4.539062 -11.265625 4.78125 -11.265625 C 5.03125 -11.273438 5.21875 -11.28125 5.34375 -11.28125 L 5.4375 -11.28125 C 5.582031 -11.28125 5.753906 -11.273438 5.953125 -11.265625 C 6.160156 -11.265625 6.367188 -11.253906 6.578125 -11.234375 C 6.679688 -11.234375 6.769531 -11.21875 6.84375 -11.1875 C 6.914062 -11.164062 6.976562 -11.132812 7.03125 -11.09375 C 7.09375 -11.0625 7.148438 -11.019531 7.203125 -10.96875 C 7.253906 -10.914062 7.304688 -10.851562 7.359375 -10.78125 C 7.367188 -10.769531 7.378906 -10.753906 7.390625 -10.734375 C 7.410156 -10.722656 7.425781 -10.707031 7.4375 -10.6875 C 7.476562 -10.632812 7.523438 -10.578125 7.578125 -10.515625 C 7.628906 -10.460938 7.675781 -10.40625 7.71875 -10.34375 C 7.757812 -10.289062 7.796875 -10.238281 7.828125 -10.1875 C 7.867188 -10.132812 7.894531 -10.09375 7.90625 -10.0625 L 8.53125 -10.0625 C 8.613281 -10.0625 8.675781 -10.046875 8.71875 -10.015625 C 8.757812 -9.984375 8.78125 -9.960938 8.78125 -9.953125 L 8.90625 -9.53125 C 8.90625 -9.507812 8.882812 -9.472656 8.84375 -9.421875 C 8.8125 -9.378906 8.769531 -9.359375 8.71875 -9.359375 L 8.328125 -9.359375 C 8.328125 -9.328125 8.332031 -9.289062 8.34375 -9.25 C 8.363281 -9.207031 8.382812 -9.15625 8.40625 -9.09375 C 8.425781 -9.03125 8.441406 -8.957031 8.453125 -8.875 C 8.460938 -8.789062 8.46875 -8.691406 8.46875 -8.578125 C 8.46875 -8.484375 8.460938 -8.375 8.453125 -8.25 C 8.453125 -8.125 8.429688 -7.992188 8.390625 -7.859375 L 8.390625 -6.828125 C 8.390625 -6.710938 8.332031 -6.65625 8.21875 -6.65625 L 7.46875 -6.65625 C 7.34375 -6.65625 7.28125 -6.710938 7.28125 -6.828125 L 7.28125 -7.453125 Z M 7.140625 -10.0625 C 7.078125 -10.207031 6.984375 -10.320312 6.859375 -10.40625 C 6.742188 -10.5 6.609375 -10.566406 6.453125 -10.609375 C 6.296875 -10.648438 6.128906 -10.675781 5.953125 -10.6875 C 5.785156 -10.695312 5.609375 -10.703125 5.421875 -10.703125 L 5.03125 -10.703125 C 4.863281 -10.703125 4.695312 -10.695312 4.53125 -10.6875 C 4.375 -10.675781 4.222656 -10.644531 4.078125 -10.59375 C 3.929688 -10.550781 3.789062 -10.488281 3.65625 -10.40625 C 3.53125 -10.320312 3.414062 -10.207031 3.3125 -10.0625 Z M 2.71875 -8.046875 L 7.875 -8.046875 L 7.875 -8.65625 L 6.765625 -8.65625 L 6.765625 -9.21875 L 7.6875 -9.21875 L 7.515625 -9.515625 L 3.078125 -9.515625 L 2.890625 -9.21875 L 3.828125 -9.21875 L 3.828125 -8.65625 L 2.71875 -8.65625 Z M 1.28125 -1.796875 C 1.363281 -1.890625 1.453125 -1.96875 1.546875 -2.03125 C 1.648438 -2.09375 1.753906 -2.140625 1.859375 -2.171875 C 1.960938 -2.203125 2.0625 -2.222656 2.15625 -2.234375 C 2.25 -2.242188 2.335938 -2.25 2.421875 -2.25 C 2.898438 -2.25 3.28125 -2.097656 3.5625 -1.796875 C 3.84375 -1.503906 3.984375 -1.066406 3.984375 -0.484375 C 3.984375 -0.253906 3.957031 -0.0273438 3.90625 0.1875 C 3.851562 0.40625 3.765625 0.597656 3.640625 0.765625 C 3.515625 0.941406 3.347656 1.082031 3.140625 1.1875 C 2.941406 1.289062 2.691406 1.34375 2.390625 1.34375 C 2.097656 1.34375 1.851562 1.296875 1.65625 1.203125 C 1.457031 1.109375 1.296875 0.976562 1.171875 0.8125 C 1.054688 0.644531 0.972656 0.453125 0.921875 0.234375 C 0.867188 0.0234375 0.84375 -0.195312 0.84375 -0.4375 C 0.84375 -0.53125 0.84375 -0.632812 0.84375 -0.75 C 0.851562 -0.863281 0.875 -0.976562 0.90625 -1.09375 C 0.945312 -1.21875 0.992188 -1.335938 1.046875 -1.453125 C 1.109375 -1.578125 1.1875 -1.691406 1.28125 -1.796875 Z M 1.625 0.625 C 1.726562 0.75 1.847656 0.832031 1.984375 0.875 C 2.128906 0.914062 2.269531 0.9375 2.40625 0.9375 C 2.644531 0.9375 2.832031 0.882812 2.96875 0.78125 C 3.113281 0.675781 3.222656 0.546875 3.296875 0.390625 C 3.367188 0.234375 3.414062 0.0742188 3.4375 -0.078125 C 3.46875 -0.242188 3.484375 -0.382812 3.484375 -0.5 C 3.484375 -0.6875 3.460938 -0.863281 3.421875 -1.03125 C 3.390625 -1.195312 3.332031 -1.335938 3.25 -1.453125 C 3.164062 -1.578125 3.054688 -1.675781 2.921875 -1.75 C 2.785156 -1.820312 2.625 -1.859375 2.4375 -1.859375 C 2.21875 -1.859375 2.035156 -1.816406 1.890625 -1.734375 C 1.753906 -1.660156 1.644531 -1.554688 1.5625 -1.421875 C 1.476562 -1.296875 1.414062 -1.144531 1.375 -0.96875 C 1.34375 -0.800781 1.328125 -0.628906 1.328125 -0.453125 C 1.328125 -0.265625 1.347656 -0.0742188 1.390625 0.109375 C 1.441406 0.304688 1.519531 0.476562 1.625 0.625 Z M 4.453125 -2.171875 L 6.5 -2.171875 L 6.5 -1.765625 L 4.9375 -1.765625 L 4.9375 -0.703125 L 6.40625 -0.703125 L 6.40625 -0.296875 L 4.9375 -0.296875 L 4.9375 1.265625 L 4.453125 1.265625 Z M 6.9375 -2.171875 L 8.984375 -2.171875 L 8.984375 -1.765625 L 7.421875 -1.765625 L 7.421875 -0.703125 L 8.890625 -0.703125 L 8.890625 -0.296875 L 7.421875 -0.296875 L 7.421875 1.265625 L 6.9375 1.265625 Z M 6.9375 -2.171875 "/>
</g>
</svg>
