<svg xmlns="http://www.w3.org/2000/svg" width="96" height="96" viewBox="0 0 96 96">
<!-- Functional warning symbol referenced to SKODA Yeti Owner Manual 11.2011, printed p.23. No font or cluster image bundled. -->
<g fill="#f2b84b" transform="translate(7.969803 76.025552) scale(5.649245)">
<path transform="translate(0.000000 0)" d="M 7.484375 0.765625 L 7.484375 0.28125 L 8.28125 0.28125 L 8.28125 0.765625 L 9.640625 0.765625 L 9.640625 0.28125 L 10.375 0.28125 L 10.375 0.765625 L 12.125 0.765625 C 12.125 0.765625 12.128906 0.710938 12.140625 0.609375 C 12.148438 0.515625 12.171875 0.382812 12.203125 0.21875 C 12.234375 0.0625 12.273438 -0.113281 12.328125 -0.3125 C 12.378906 -0.519531 12.445312 -0.722656 12.53125 -0.921875 C 12.632812 -1.140625 12.753906 -1.375 12.890625 -1.625 C 13.035156 -1.882812 13.175781 -2.175781 13.3125 -2.5 C 13.445312 -2.832031 13.5625 -3.203125 13.65625 -3.609375 C 13.757812 -4.015625 13.8125 -4.476562 13.8125 -5 C 13.8125 -5.519531 13.757812 -5.988281 13.65625 -6.40625 C 13.5625 -6.820312 13.445312 -7.1875 13.3125 -7.5 C 13.175781 -7.820312 13.035156 -8.097656 12.890625 -8.328125 C 12.753906 -8.566406 12.632812 -8.765625 12.53125 -8.921875 C 12.40625 -9.109375 12.3125 -9.300781 12.25 -9.5 C 12.1875 -9.707031 12.140625 -9.898438 12.109375 -10.078125 C 12.078125 -10.253906 12.054688 -10.398438 12.046875 -10.515625 C 12.046875 -10.628906 12.046875 -10.6875 12.046875 -10.6875 L 10.453125 -10.6875 C 10.453125 -10.675781 10.453125 -10.625 10.453125 -10.53125 C 10.453125 -10.445312 10.460938 -10.328125 10.484375 -10.171875 C 10.503906 -10.015625 10.535156 -9.851562 10.578125 -9.6875 C 10.628906 -9.519531 10.695312 -9.347656 10.78125 -9.171875 C 10.863281 -9.003906 10.96875 -8.867188 11.09375 -8.765625 C 11.25 -8.585938 11.429688 -8.390625 11.640625 -8.171875 C 11.859375 -7.960938 12.0625 -7.710938 12.25 -7.421875 C 12.4375 -7.128906 12.59375 -6.785156 12.71875 -6.390625 C 12.851562 -6.003906 12.921875 -5.539062 12.921875 -5 C 12.921875 -4.726562 12.890625 -4.445312 12.828125 -4.15625 C 12.773438 -3.863281 12.695312 -3.570312 12.59375 -3.28125 C 12.5 -3 12.382812 -2.71875 12.25 -2.4375 C 12.125 -2.15625 11.988281 -1.894531 11.84375 -1.65625 C 11.695312 -1.425781 11.546875 -1.21875 11.390625 -1.03125 C 11.234375 -0.84375 11.078125 -0.695312 10.921875 -0.59375 L 3.25 -0.59375 C 3.09375 -0.695312 2.9375 -0.84375 2.78125 -1.03125 C 2.625 -1.21875 2.46875 -1.425781 2.3125 -1.65625 C 2.15625 -1.894531 2.003906 -2.15625 1.859375 -2.4375 C 1.722656 -2.71875 1.601562 -3 1.5 -3.28125 C 1.394531 -3.570312 1.3125 -3.863281 1.25 -4.15625 C 1.1875 -4.445312 1.15625 -4.726562 1.15625 -5 C 1.15625 -5.351562 1.1875 -5.675781 1.25 -5.96875 C 1.320312 -6.269531 1.410156 -6.539062 1.515625 -6.78125 C 1.617188 -7.019531 1.738281 -7.234375 1.875 -7.421875 C 2.019531 -7.617188 2.160156 -7.796875 2.296875 -7.953125 C 2.441406 -8.109375 2.582031 -8.253906 2.71875 -8.390625 C 2.851562 -8.523438 2.972656 -8.648438 3.078125 -8.765625 C 3.203125 -8.867188 3.304688 -9.003906 3.390625 -9.171875 C 3.484375 -9.347656 3.554688 -9.519531 3.609375 -9.6875 C 3.660156 -9.851562 3.703125 -10.015625 3.734375 -10.171875 C 3.765625 -10.328125 3.78125 -10.445312 3.78125 -10.53125 C 3.789062 -10.625 3.796875 -10.675781 3.796875 -10.6875 L 2.125 -10.6875 C 2.125 -10.6875 2.117188 -10.628906 2.109375 -10.515625 C 2.109375 -10.398438 2.09375 -10.253906 2.0625 -10.078125 C 2.039062 -9.898438 2 -9.707031 1.9375 -9.5 C 1.882812 -9.300781 1.8125 -9.109375 1.71875 -8.921875 C 1.59375 -8.765625 1.453125 -8.566406 1.296875 -8.328125 C 1.140625 -8.097656 0.988281 -7.820312 0.84375 -7.5 C 0.707031 -7.1875 0.59375 -6.820312 0.5 -6.40625 C 0.40625 -5.988281 0.359375 -5.519531 0.359375 -5 C 0.359375 -4.476562 0.40625 -4.015625 0.5 -3.609375 C 0.59375 -3.203125 0.707031 -2.832031 0.84375 -2.5 C 0.976562 -2.175781 1.117188 -1.882812 1.265625 -1.625 C 1.410156 -1.375 1.535156 -1.140625 1.640625 -0.921875 C 1.722656 -0.722656 1.789062 -0.519531 1.84375 -0.3125 C 1.90625 -0.113281 1.957031 0.0625 2 0.21875 C 2.039062 0.382812 2.070312 0.515625 2.09375 0.609375 C 2.113281 0.710938 2.125 0.765625 2.125 0.765625 L 3.796875 0.765625 L 3.796875 0.28125 L 4.59375 0.28125 L 4.59375 0.765625 L 5.796875 0.765625 L 5.796875 0.28125 L 6.6875 0.28125 L 6.6875 0.765625 Z M 6.4375 -1.71875 C 6.4375 -1.632812 6.453125 -1.550781 6.484375 -1.46875 C 6.515625 -1.394531 6.554688 -1.328125 6.609375 -1.265625 C 6.660156 -1.210938 6.726562 -1.164062 6.8125 -1.125 C 6.894531 -1.09375 6.984375 -1.078125 7.078125 -1.078125 C 7.179688 -1.078125 7.269531 -1.09375 7.34375 -1.125 C 7.425781 -1.164062 7.492188 -1.210938 7.546875 -1.265625 C 7.609375 -1.328125 7.648438 -1.394531 7.671875 -1.46875 C 7.703125 -1.550781 7.71875 -1.632812 7.71875 -1.71875 C 7.71875 -1.914062 7.660156 -2.082031 7.546875 -2.21875 C 7.441406 -2.363281 7.285156 -2.4375 7.078125 -2.4375 C 6.878906 -2.4375 6.722656 -2.363281 6.609375 -2.21875 C 6.492188 -2.082031 6.4375 -1.914062 6.4375 -1.71875 Z M 7.078125 -10.296875 C 6.878906 -10.296875 6.722656 -10.21875 6.609375 -10.0625 C 6.492188 -9.914062 6.4375 -9.722656 6.4375 -9.484375 L 6.4375 -3.5625 C 6.4375 -3.320312 6.492188 -3.128906 6.609375 -2.984375 C 6.722656 -2.835938 6.878906 -2.765625 7.078125 -2.765625 C 7.285156 -2.765625 7.441406 -2.835938 7.546875 -2.984375 C 7.660156 -3.128906 7.71875 -3.320312 7.71875 -3.5625 L 7.71875 -9.484375 C 7.71875 -9.722656 7.660156 -9.914062 7.546875 -10.0625 C 7.441406 -10.21875 7.285156 -10.296875 7.078125 -10.296875 Z M 7.078125 -10.296875 "/>
</g>
</svg>
